<svg width="356" height="597" viewBox="0 0 356 597" fill="none" xmlns="http://www.w3.org/2000/svg">
<path d="M131.246 83.9453C151.434 34.6921 199.855 0 256.379 0C312.903 0 361.325 34.6924 381.512 83.946C341.513 93.2229 303.388 109.967 269.222 133.53L256.381 142.386L243.539 133.53C209.373 109.967 171.246 93.222 131.246 83.9453Z" fill="#E1E5F0"/>
<path fill-rule="evenodd" clip-rule="evenodd" d="M0 136.88C0 123.605 10.7621 112.843 24.0377 112.843H57.0518C116.089 112.843 173.732 130.792 222.332 164.31L256.402 187.806L290.473 164.31C339.073 130.792 396.715 112.843 455.753 112.843H488.767C502.043 112.843 512.805 123.605 512.805 136.88V612.293C512.805 625.569 502.043 636.331 488.767 636.331H455.753C406.465 636.331 358.341 651.316 317.767 679.299L270.049 712.207C261.834 717.873 250.971 717.873 242.755 712.207L195.038 679.299C154.463 651.316 106.34 636.331 57.0518 636.331H24.0377C10.7621 636.331 0 625.569 0 612.293V136.88Z" fill="#E1E5F0"/>
</svg>
