<svg width="18" height="18" viewBox="0 0 18 18" fill="none" xmlns="http://www.w3.org/2000/svg">
<path fill-rule="evenodd" clip-rule="evenodd" d="M4.50461 9.03509C4.50461 8.51318 4.59129 8.01282 4.746 7.5435L2.03801 5.47559C1.51024 6.54716 1.21289 7.7546 1.21289 9.03509C1.21289 10.3145 1.50988 11.5212 2.03692 12.592L4.74344 10.5201C4.59019 10.053 4.50461 9.55444 4.50461 9.03509Z" fill="#FBBC05"/>
<path fill-rule="evenodd" clip-rule="evenodd" d="M9.2584 4.28705C10.3922 4.28705 11.4163 4.6888 12.2209 5.3462L14.5617 3.00875C13.1353 1.76698 11.3066 1 9.2584 1C6.0786 1 3.34575 2.81847 2.03711 5.4755L4.74509 7.54341C5.36906 5.64934 7.14768 4.28705 9.2584 4.28705Z" fill="#EB4335"/>
<path fill-rule="evenodd" clip-rule="evenodd" d="M9.2584 13.7827C7.14768 13.7827 5.36906 12.4204 4.74509 10.5264L2.03711 12.5939C3.34575 15.2513 6.0786 17.0698 9.2584 17.0698C11.221 17.0698 13.0947 16.3729 14.501 15.0672L11.9305 13.08C11.2053 13.5369 10.292 13.7827 9.2584 13.7827Z" fill="#34A853"/>
<path fill-rule="evenodd" clip-rule="evenodd" d="M16.9404 9.03513C16.9404 8.56033 16.8673 8.04901 16.7576 7.57422H9.25977V10.6787H13.5756C13.3598 11.7371 12.7724 12.5508 11.9319 13.0804L14.5024 15.0676C15.9796 13.6965 16.9404 11.6542 16.9404 9.03513Z" fill="#4285F4"/>
</svg>
